# xmcd CD database file generated by freedbAccess_ocx
#
# Track frame offsets:
#       182
#       12290
#       32470
#       43347
#       56972
#       71510
#       84382
#       97492
#       112807
#       120395
#       140440
#       150227
#       163780
#       175025
#
# Disc length: 2497 seconds
#
# Revision: 0
# Processed by: cddbd v1.4PL0 Copyright (c) Steve Scherf et al.
# Submitted via: CDnGo 2.00
#
DISCID=b209bf0e
DTITLE=Taxmeni - Calamity Jane
DYEAR=1900
DGENRE=Country
TTITLE0=Bila hvezda Georgia
TTITLE1=Guadalcanal
TTITLE2=Drafted Into The Army
TTITLE3=Bismarck
TTITLE4=Tipperary
TTITLE5=John Brown`s Body
TTITLE6=Valcik na rozloucenou
TTITLE7=Pochod americkych namorniku
TTITLE8=I`m A Yankee Doodle Dandy
TTITLE9=Nebesti jezdci
TTITLE10=Uz vlaje vlajka zluta
TTITLE11=Nad nami vlajka hvezdnata
TTITLE12=Dixie
TTITLE13=Beer Barrel Polka
EXTD=
EXTT0=
EXTT1=
EXTT2=
EXTT3=
EXTT4=
EXTT5=
EXTT6=
EXTT7=
EXTT8=
EXTT9=
EXTT10=
EXTT11=
EXTT12=
EXTT13=
PLAYORDER=
